<svg version="1.2" xmlns="http://www.w3.org/2000/svg" viewBox="0 0 603 639" width="603" height="639">
	<title>move-svg</title>
	<style>
		.s0 { fill: #1f487e;stroke: #000000;stroke-linecap: round;stroke-linejoin: round } 
		.s1 { fill: #1f487e;stroke: #262626;stroke-linecap: round;stroke-linejoin: round } 
	</style>
	<g id="Layer">
		<path id="Layer" fill-rule="evenodd" class="s0" d="m306.1 38.4c0.4 19.7 0.1 15.8-0.3 16.9 13.2 13.4 19.2 12.6 14.6 16.6-3.8-2.7-9.9-4-22.2-9.5-1 1.7-3.3 4.1-3.1 7.1 0.3 5.2 0.8 12.8 4 21.1-3 4.1-8-0.3-8.1 3-10.2 18.4-14.9 12.2-28.1 8.2-4-2.3-6.3-5.9-5.8-0.9l-3.2 9.2c24.6 18 89.3 23.6 221.8 45.8 1 0.9 4.4 3.2 4.6 5l-2.1 10.1c0 0 8.9-5.4 13.9-5.4 11.2-0.1 29.3 13.7 29.3 13.7 3.2 6.6 0.3 12.8-2.4 18.7-2.1 4.7 2.8 10-0.5 10.5l-3.9 8.5c-2.6 0.1-5.8 0.8-6.6-0.8l-1.9-21.2c-0.4-3.5-9.3-10.2-4.9 3.9 1.1 3.8 2.4 10.3-1.9 7.7l-19.8-12.4c-19.3-11.5-14 3.7-8.3 5.8l12.8 5.6c4.4 5.3 10.2 4.6 15.3 6.7l7.7 12.5 19.2-5.7-1.1-21c1.5-20.8 6-20.3 14.8-20.4 1.1-1.7 5.1-2.8 4.7 3.8l4.7 3.9c15.6 127.5 34.6 249.9 51.9 374.9 1 5.4 1.6 10.3-1.9 8.6l-51.9 1.9c-5.9 3.2-10.4 2.2-14.8 4.6-10.6 5.8-16.3 13.5-26.1 20.6l-0.9 5c-25.4 1.6-49.3 0.2-76.3 5.1-5.5-0.1-6.2-3.3-5.5-6.9-6.9-33.7-26.7-35.4-41-40.7-5.8 0.9-2.5-4.7-2.6-7.8l-57.7-282.6c-10.8-28.7-23.7-44.6-37.4-64.8-2.8-1.5-5.2-0.6-7 3.4l-15.2 98.9c-1.8 5.2-6.6 7.1-7.2 7.4l-8.2-0.7c-6.9-2.5-9.6-1.7-3.8 5.8 17.7 22.8 32.6 48.5 48.9 73.7 20.8 32.2 35.1 69.5 52 105 0.8 4.9 6.6 11.1 0.9 14.5l-5.7 3.8c-9.8 3.5 0.5 4.3 0.9 7.8 7.3-2.8 12.9-0.7 19.3-1.1 4.5-2.9 10.8-6.3 9.9 1.6l5.3 15.7c1.8 9.5-4.8 4.4-6.3 5.8-7.6 0.9-16.6 3.7-23.4 2.9-3.4-2.6-6.1-0.9-8.6 2.9 1.7 5.9 5.5 7.2-1.2 8.1-8 1.4-15.9 3.5-24.8 2.4-2.5-8.1-4.7-16.9-9-19.8l-11.2 1.6c-14.3-34.7-26.9-63.9-44-94.3l-62.7-88 13.5-38.8c0.1-6.2-4.4-15.6-6.1-8.3-19.9 87.8-56.2 157.9-90 231.8-1.6 3.9-5.1 6.5-7.9 6.8l-18-1.5c-5.3 5.6-1.6 7.4 5.7 7.6l6.5 0.6 5.9 14.6c25.9 10.5 32.2 17.3 34.7 23.3 3.4 8.7 0.3 10.8-3.5 11.6-11.7 5.3-32.9-2.6-49.3-3.9l-11.6-2.9-20.2-20.2c-4.5-1.9-9.5-1.6-15 2.8-12.5-11.5-26.5-16.4-28.2-21.9 7.5-23.9 6.3-8.8 13.4-26.1 27-50.3 51.8-98.9 75.9-152.9 9.1-15.2 12-30.9 17.3-47.1l17.4-37.4 0.9-9.6-7.7-1c-8-4.3-9.5-5.9-9.7-7.6 3-14.8 6-30.9 9-46.5-0.2-36.7 8.4-63 17.1-89.1 7.1-17.8 21.6-47.6 33.6-49.9 12.7-2.5 25.2-6.3 36.2-3.3 11.1 3 15.5-6.7 10.9-14-8.6-13.9-4.7-28.4-5-35.5-0.8-21.8 23.5-41.9 52.3-41.8 18.5 0.1 36.1 10.2 44 37.9zm-74.8 95.7c4.9-4.1 2.5-3.7 5.1-6l-23.3-29.8c-3.3-2.2-3.2 3.3-6.6 4.6 24.1 29.7 24.3 25.1 24.8 31.2zm34.9 15.2l-19.3 17.1c-2.5 4.6-1.1 5.9 3.4 4.7 0 0 20.4-17 23.5-17 6.3 0.2 14-0.2 14.8 3.1 6.2 6.4 18.1 9 14.5 20.7-1.5 2.4-7.4 14.9-7.4 14.9 6.7 5 10.8 18.2 18 22.8 3.3 2.1 6.1 4.2 7.8 7.5 5.1 9.7 12.3 15.8 17.9 24.2 6.3 7.6 8.7 14.4 12.9 33.5l6.8 31.7c11.8 54.4 27.8 142.4 42.1 214.8 3.3 13.4 4.8 27.7 12.9 38.7 9.8 8 17.4 22.2 30.6 21.1 19.8-0.5 39.9 0.6 59.1-2.8 5.3-5 4.5-6.8-2.1-5.9-16.5-0.6-46.6-0.7-68.1 0.6-2.4 1.2-2.1-1.7-3-3.7-14.7-114.8-32.3-229.6-48.4-344.4-1.2-0.9-1.5-5 7.6-7.4 22.8-7.2 40.5-15.3 61-22.5l7.9-4.1c2.1-3.3-0.9-3.8-5.8-4.2-47.7-3.9-86.9-14.1-138-19.5-5.9-0.8-6.5-5.8-9.5-8.9l-7.9-11.8c-1.7-1.9-3.8-4.1-6.3-4.5-9.3-1.3-13.7-1.9-16.4-1.8-3.5 0.1-4.1 1.3-8.6 3.1zm-79.2 5.4l7.2 37.9c2.8 1.8 0.7 9.5 10.5 4.3 12.5 0 21.3-4 31.3-9.1 3.1-1.6 3.7-5.8-1.9-6.2l-24.1 10.1c-7.9 3.1-7.6-3.7-9.6-7.7l-5.7-30.8c-1.8-2.5-3.5-4.4-4.9-4.5-1.3-0.1-2.3 1.5-2.8 6zm-37.9 6.8c-1.4 7.9-0.3 22.8-1 38.5-1 24.7 5.8 60.3 41.5 53.8 15.6-2.8 43.1-20.5 43.1-20.5 10.2-9 1.9-9.5-3.6-7-78 44.7-64.8-1.9-74-66.6-0.6-1-1.1-1.4-1.8-1.3-1.3 0.2-2.8 2.3-4.2 3.1zm129.4 19.9c-3.5 1.9-0.5 5.8 1.2 6.7 3 1.5 6.6 1.5 7.1-4.7 0.2-3.4-1.1-4.5-2.5-4.5-2.1 0.3-3.9 1.5-5.8 2.5zm-37.3 10.9c3.9 8.1 7.8 16.2 10.5 24 5.5 2.2 7.3-0.7 7.3-6.5 0 0-2.4-2.8-2.2-5 1-3.8 3.7-5 7-6.4 2.7-1.7 2.8-12.4-5.2-7.2l-3.4 3.3c-3.4 2.3-3.2 0.2-3.9-0.9l-2.7-4.8c-1.5-1.8-2.9-2.5-4.2-2.4-2.8 0.1-4.5 3.7-3.2 5.9zm229.3 27.2c-3.5 0.3-3.4 2.8-3.4 5.3 15.9 108.6 34.3 217.2 47.6 325.9 2 2.3 3.6 7.5 6.4 4.5l4.2-2.2c2.1-0.2 1-2.8 1.4-4.3-16.8-108.9-32.4-218.2-50.5-326.8-0.2-1.9-1.4-2.6-3-2.7 0 0-2.7 0.3-2.7 0.3z"/>
		<path id="Layer" fill-rule="evenodd" class="s1" d="m414.7 602.5c0 19.7-15.7 35.6-35.1 35.6-19.4 0-35.1-15.9-35.1-35.6 0-19.7 15.7-35.6 35.1-35.6 19.4 0 35.1 15.9 35.1 35.6zm-40.9 0.5c0 5 4.1 9.1 9.1 9.1 5 0 9-4.1 9-9.1 0-5-4-9-9-9-5 0-9.1 4-9.1 9z"/>
		<path id="Layer" class="s0" d="m433.2 610.8l54.3-2.3c5.2-0.5 3.8 3.3 3.7 4.7 0.8 10.2-38.9 41-59.7 2.7-0.9-2.5-1.9-5.1 1.7-5.1z"/>
		<path id="Layer" class="s0" d="m512.5 603.9c-1.6-0.1-3.3-2.4-3.2-2.2 0.1 0.2 0.4-2.8 1.3-3.5 11.9-8.4 21.6-18.6 38.6-21 0 0 3.4 1.3 3.5 2.8 0.6 8.7 0.9 6.9-0.9 16.5 0 0.3-3.2 4.2-6 4.6-15.5 2.1-23.6 3.3-33.3 2.8z"/>
		<path id="Layer" class="s0" d="m373 237.6c-1.9-3.1-3.1-3.6-4.3-5.3-10.5-14.7-20.2-23.4-30.8-36-6-17.7 8.5-15.3 14.4-11.9 17 17.6 22.7 23.9 27.8 27.7 1.1 1.7 3.1 3.5 2.2 5.5-2.9 0.7-5.2 0.8-8.1 2.2-0.2 4.8 3.1 12.6 2.8 16.6-0.4 2.1-3.1 2.6-4 1.2z"/>
		<path id="Layer" class="s0" d="m359.9 224.5l8.6 10.4c-9.2 1.2-16.9 5.1-24.9 12.2l-10.4-13.1c8.3-6 17.3-8.2 26.7-9.5z"/>
	</g>
</svg>