<svg version="1.2" xmlns="http://www.w3.org/2000/svg" viewBox="0 0 1224 217" width="500" height="89">
	<title>dividers-5889812-ai</title>
	<style>
		.s0 { fill: #000000 } 
	</style>
	<g id="Layer 1">
		<g id="&lt;Group&gt;">
			<path id="&lt;Compound Path&gt;" fill-rule="evenodd" class="s0" d="m0 118.5c1.6-1.2 3.3-2.2 4.7-3.6 1.6-1.6 2.8-3.6 4.4-5.2 2.6-2.5 4.6-2.7 7.7-0.8q3.7 2.4 7.5 4.7c2.5 1.6 5.3 2.2 8.4 2.2 31.4-0.1 62.8-0.1 94.2-0.1q197.4 0 394.9 0c1.3 0 2.6 0 4.7 0-1.4-2.1-2.4-3.6-3.3-5-1.9-2.7-1.9-2.7 0.1-5.6q12.2-17.2 24.4-34.4 18.6-26.2 37.2-52.4c0.8-1 1.5-2 2.6-3.4 8.7 11.7 16.6 23.4 25.2 35.1 4.8-5.9 8.6-11.8 12.7-17.6 4.1-5.7 8.2-11.4 12.5-17.5 1.1 1.3 1.9 2.2 2.6 3.2q26 36.6 51.9 73.2c3.4 4.8 6.8 9.5 10.1 14.2 1.7 2.5 1.7 2.5 0 5-1 1.5-2.1 3-3.5 5 1.7 0.1 2.9 0.2 4 0.2q71.3 0 142.6 0c114.6 0 229.2 0 343.8 0.1 6.3 0 11.6-1.4 16.5-4.9q1.4-1 2.8-1.9c3.3-2 5.2-1.9 7.9 0.9 2.7 2.9 5.2 6 7.9 9.2-1.3 1.3-2.7 2.7-4.1 4.2-1.2 1.5-2.3 3.1-3.6 4.5-2.8 2.8-4.8 3.1-8.2 1q-3.9-2.3-7.8-4.7c-2.4-1.5-5-2-7.8-2-52.4 0.1-104.7 0-157.1 0q-168.2 0-336.4 0c-0.7 0-1.4 0.1-2 0-2.3-0.3-3.8 0.7-5.1 2.6-6.4 9.1-12.8 18.1-19.3 27.2q-16.2 22.9-32.4 45.8c-0.7 1-1.5 1.9-2.4 3.1-2.6-1.8-3.7-4.5-5.4-6.7-1.7-2.2-3.3-4.6-4.9-6.9q-2.5-3.5-4.9-6.9-2.5-3.5-5-7c-1.6-2.3-3.2-4.5-5.2-7.3-1 1.2-1.8 2.1-2.5 3.1q-10.2 14.4-20.5 28.8c-0.7 1-1.5 1.9-2.4 3.1-1-1.2-1.7-2.1-2.4-3-17.1-24.1-34.3-48.2-51.3-72.4-1.8-2.6-3.8-3.5-7-3.5-88.2 0.1-176.4 0-264.6 0-76.2 0-152.3 0.1-228.5 0-4 0-7.4 0.8-10.6 2.9-2.1 1.3-4.2 2.7-6.4 3.9-3.2 1.9-5.2 1.7-7.8-1-1.4-1.4-2.4-3.1-3.7-4.4-1.6-1.6-3.5-2.9-5.2-4.3q0-0.3 0-0.7zm587.2 65.3c-0.7-0.8-1.4-1.7-2.1-2.6q-25-35.2-49.9-70.4c-2-2.8-2-2.8 0-5.6q25-35.2 50-70.4c0.6-0.9 1.4-1.7 2.4-3 6.5 9 12.7 17.7 18.9 26.3 0.6-0.3 0.8-0.3 0.9-0.5q0.8-0.9 1.5-1.8c2.4-3.4 2.4-3.4 0-6.8q-9.5-13.5-19.1-26.9c-0.6-0.9-1.4-1.7-2.3-2.9-1.3 1.7-2.5 3.1-3.5 4.5q-25.1 35.3-50.1 70.7c-2.7 3.8-5.3 7.6-8.1 11.4-1.2 1.6-1.3 2.9 0 4.5 1.4 1.7 2.5 3.5 3.8 5.3q27.8 39.2 55.6 78.4c0.7 1 1.5 1.9 2.4 3.1 21.2-29.9 42.1-59.4 63-88.8-0.3-0.6-0.4-1.1-0.7-1.5q-15.4-21.6-30.8-43.1c0-0.1-0.2-0.2-0.3-0.2-0.1 0-0.2 0.1-0.6 0.1-1.2 1.8-2.5 3.7-3.9 5.7q13.9 19.6 27.3 38.5c-3.2 5.6-52.3 74.3-54.4 76zm113.9-75.5c-0.3-0.7-0.4-1.2-0.7-1.6q-30.6-43.1-61.2-86.2c-0.1-0.3-0.4-0.5-0.7-0.7q-0.1-0.1-0.3-0.1c-0.1-0.1-0.2 0-0.7 0-20.8 29.2-41.7 58.7-62.5 88.1 0.3 0.7 0.4 1.1 0.7 1.5q14.8 20.9 29.7 41.9c0.3 0.3 0.6 0.6 1 0.9 0 0.1 0.2 0.1 0.3 0.1 0.1 0 0.2 0 0.7 0q1.7-2.4 3.9-5.4-13.8-19.5-27.3-38.5c2.6-5 52.2-74.5 54.4-76 0.5 0.6 1 1.1 1.5 1.8q25.3 35.6 50.5 71.2c1.9 2.7 1.9 2.8 0.1 5.4q-25.2 35.5-50.4 71c-0.6 0.7-1.3 1.4-2.2 2.5-6.5-9.1-12.7-17.8-19.2-26.8-1.6 2.4-3 4.3-4.2 6.1 3.3 6 21.7 31.4 24 33.1 20.9-29.5 41.8-59 62.6-88.3zm-63 71.7c0.6-0.7 1-1.2 1.4-1.7q20.8-29.2 41.6-58.5c0.8-1.2 1.2-2.7 2.1-3.8 1.4-1.9 3-3.6 4.4-5.5 1.8-2.4 1.8-2.5 0-5.1q-23.7-33.4-47.5-66.8c-0.5-0.8-1.2-1.5-2.1-2.5-1 1.2-1.8 2.1-2.5 3.1q-6.5 9.2-13 18.3c-2.3 3.3-2.3 3.3 0 6.5 9.4 13.3 18.9 26.6 28.3 39.9 3.3 4.7 3.3 3.5 0.1 8.1-9.6 13.5-19.2 27-28.8 40.5-1.9 2.7-1.9 2.7 0 5.3q7 10 14.1 20c0.5 0.7 1.2 1.3 1.9 2.2zm-32.8-24.7c-0.9-1.3-1.5-2.2-2.2-3.1q-14.5-20.6-29.1-41.1c-2.3-3.3-2.3-2.9 0-6.1q14.8-20.8 29.5-41.6c1.8-2.5 1.8-2.6 0.1-5q-7.4-10.5-14.8-20.9c-0.3-0.5-0.6-1.1-1.2-2-17.4 24.6-34.4 48.5-51.5 72.6 4.6 6 8.6 12.1 12.9 18q6.4 9 12.8 18c4.2 6.1 8.5 12.1 12.8 18.1 4.2 5.9 8.3 12 13 18.1 6-8.6 11.8-16.7 17.7-25zm33.5-47.3c-8.7-12.2-17.2-24.2-26.1-36.9-0.6 1.1-0.9 1.6-1.2 2-7.8 11-15.5 21.9-23.3 32.7-1.2 1.7-1 3 0.2 4.6 7.6 10.6 15.1 21.3 22.6 31.9 0.5 0.7 1.2 1.2 2 2.1 8.7-12.2 17.1-24.1 25.8-36.4z"/>
		</g>
	</g>
</svg>